<svg width="16" height="16" viewBox="0 0 16 16" fill="none" xmlns="http://www.w3.org/2000/svg">
<path d="M2 7.5001C1.72386 7.5001 1.5 7.72396 1.5 8.0001C1.5 8.27624 1.72386 8.5001 2 8.5001V7.5001ZM14.3536 8.35365C14.5488 8.15839 14.5488 7.84181 14.3536 7.64655L11.1716 4.46456C10.9763 4.2693 10.6597 4.2693 10.4645 4.46456C10.2692 4.65983 10.2692 4.97641 10.4645 5.17167L13.2929 8.0001L10.4645 10.8285C10.2692 11.0238 10.2692 11.3404 10.4645 11.5356C10.6597 11.7309 10.9763 11.7309 11.1716 11.5356L14.3536 8.35365ZM2 8.5001H14V7.5001H2V8.5001Z" fill="white"/>
</svg>
