<svg width="300" height="300" viewBox="0 0 300 300" fill="none" xmlns="http://www.w3.org/2000/svg">
<path d="M51.7738 42.9358L181.74 33.2013C197.517 31.7037 201.649 32.8269 211.79 39.9406L253.485 69.1439C260.246 74.0111 262.5 75.5087 262.5 81.1248V240.994C262.5 251.103 258.744 257.094 245.972 257.842L94.9708 266.828C85.2045 267.202 80.697 266.079 75.8139 259.714L45.3881 220.402C39.7538 212.914 37.5 207.673 37.5 201.308V59.0351C37.5 50.7982 41.2563 43.6846 51.7738 42.9358Z" fill="white"/>
<path fill-rule="evenodd" clip-rule="evenodd" d="M181.74 33.2009L51.7738 42.9354C41.2563 43.6842 37.5 50.7978 37.5 59.0347V201.307C37.5 207.672 39.7538 213.288 45.3881 220.402L75.8139 260.088C80.697 266.453 85.5801 267.951 94.9708 267.202L245.972 258.216C258.744 257.468 262.5 251.477 262.5 241.368V81.1243C262.5 75.8827 260.622 74.3851 254.236 69.8923C253.861 69.5179 253.485 69.5179 253.109 69.1435L211.79 40.3146C202.024 32.8265 197.892 32.0777 181.74 33.2009ZM98.3514 78.5035C85.9558 79.2523 83.3264 79.6267 76.1895 73.6363L58.5351 59.7835C56.6569 57.9114 57.4082 55.665 62.2913 55.2906L187.375 46.305C197.892 45.5562 203.151 48.9258 207.283 52.2954L228.694 67.6459C229.821 68.0203 232.074 70.6411 229.069 70.6411L99.8539 78.5035H98.3514ZM84.0776 239.871V103.963C84.0776 97.9724 85.9558 95.3516 91.2145 94.9772L239.587 86.366C244.47 85.9916 246.724 88.9868 246.724 94.9772V229.762C246.724 235.752 245.597 240.619 237.709 240.994L95.722 249.231C87.8339 249.979 84.0776 246.984 84.0776 239.871ZM224.186 111.451C224.937 115.569 224.186 119.688 220.054 120.062L213.293 121.56V221.899C207.283 225.269 202.024 226.767 197.517 226.767C190.38 226.767 188.502 224.52 182.867 217.781L137.792 147.393V215.16L152.066 218.53C152.066 218.53 152.066 226.767 140.797 226.767L109.245 228.639C108.493 226.767 109.245 222.274 112.25 221.525L120.513 219.279V129.422L109.245 128.299C108.493 124.181 110.747 118.19 117.133 117.816L150.939 115.569L197.517 186.706V123.806L185.497 122.309C184.745 117.441 188.126 113.697 192.634 113.323L224.186 111.451Z" fill="black"/>
</svg>
